{"glyphs":{":":{"x_min":0,"x_max":266,"ha":266,"o":"m 132 370 q 145 370 165 348 l 193 317 l 212 297 q 217 291 217 284 q 217 272 195 252 q 184 243 167 225 q 144 200 132 200 q 122 200 105 217 q 84 241 71 252 q 47 274 47 286 q 47 297 68 315 q 79 325 99 347 q 120 370 132 370 z m 132 157 q 145 157 165 135 l 193 104 l 212 84 q 217 78 217 70 q 217 59 195 40 q 184 30 167 12 q 144 -13 132 -13 q 122 -13 105 4 q 83 29 71 40 q 47 61 47 73 q 47 84 68 103 q 79 112 99 134 q 120 157 132 157 z"},"$":{"x_min":0,"x_max":491,"ha":491,"o":"m 255 583 l 255 427 q 255 403 271 397 l 297 389 q 447 341 447 208 q 447 117 391 66 q 339 19 274 11 q 262 10 259 6 q 255 2 255 -12 l 255 -108 q 255 -123 240 -123 q 229 -123 227 -119 q 224 -116 224 -101 l 224 -13 q 224 1 221 5 q 217 9 206 9 q 159 9 96 40 q 33 70 33 94 q 33 105 38 124 q 45 154 48 180 q 52 226 65 227 q 79 228 79 200 q 79 140 114 101 q 168 39 214 39 q 224 39 224 58 l 224 285 q 224 296 205 301 q 125 323 87 362 q 49 401 49 462 q 49 508 72 547 q 95 586 135 608 q 175 630 209 630 q 224 630 224 646 l 224 712 q 224 728 226 730 q 228 732 239 732 q 250 732 253 729 q 255 726 255 712 l 255 643 q 256 630 277 628 q 319 625 366 600 q 413 575 413 556 q 413 547 410 532 q 396 476 394 460 q 393 447 385 447 q 370 447 371 460 l 373 485 q 373 494 364 514 q 347 552 319 578 q 291 604 267 604 q 255 604 255 583 z m 224 576 q 224 606 209 606 q 174 606 147 577 q 121 548 121 511 q 121 487 135 465 q 149 442 170 434 l 202 421 q 210 417 215 417 q 224 417 224 431 z m 255 261 l 255 61 q 255 38 271 38 q 275 38 283 41 l 309 51 q 339 63 358 94 q 378 124 378 160 q 378 230 315 261 q 277 279 265 279 q 255 279 255 261 z"},"?":{"x_min":0,"x_max":332,"ha":332,"o":"m 130 619 q 96 619 70 588 q 58 573 52 573 q 40 572 40 584 q 40 601 65 629 q 109 678 178 678 q 234 678 270 647 q 306 617 306 569 q 306 525 257 462 q 204 392 184 353 q 164 314 164 280 q 164 265 166 257 q 167 251 167 249 q 167 239 157 239 q 146 239 137 261 q 127 283 127 306 q 127 337 149 398 l 167 447 l 181 488 q 196 530 196 550 q 196 580 177 600 q 159 619 130 619 z m 161 157 q 173 157 193 135 l 222 104 l 241 84 q 246 78 246 70 q 246 59 224 40 q 213 30 196 12 q 173 -13 161 -13 q 151 -13 134 4 q 112 29 100 40 q 76 61 76 73 q 76 84 97 103 q 107 111 128 134 q 149 157 161 157 z"},"<":{"x_min":0,"x_max":500,"ha":500,"o":"m 459 623 l 459 573 l 175 390 l 459 199 l 459 68 l 42 350 l 42 357 z"},"'":{"x_min":0,"x_max":164,"ha":164,"o":"m 69 391 l 41 551 q 36 580 36 598 q 36 645 84 645 q 128 645 128 595 q 128 577 124 550 l 96 391 q 93 375 82 375 q 72 375 69 391 z"},"=":{"x_min":0,"x_max":500,"ha":500,"o":"m 140 347 q 123 347 100 346 q 83 345 79 345 q 52 345 52 359 l 60 381 l 65 400 q 68 414 88 414 q 92 414 102 414 q 129 412 150 412 l 253 410 l 372 410 l 426 409 q 448 409 448 390 q 448 372 434 357 q 419 342 402 342 q 397 342 387 343 q 328 345 311 345 l 229 346 z m 140 217 q 123 217 100 216 q 83 215 79 215 q 52 215 52 229 l 60 251 l 65 271 q 68 284 88 284 q 92 284 102 284 q 129 282 150 282 l 253 280 l 372 280 l 426 279 q 448 279 448 260 q 448 242 434 227 q 419 212 402 212 q 397 212 387 213 q 328 215 311 215 l 229 216 z"},"a":{"x_min":0,"x_max":427,"ha":427,"o":"m 264 233 q 269 255 269 271 q 269 321 245 352 q 222 383 185 383 q 137 383 137 344 q 137 337 138 330 l 140 321 q 140 288 64 288 q 45 288 46 305 q 46 308 48 315 q 50 321 51 328 q 58 359 81 376 q 133 413 206 413 q 291 413 333 374 q 365 344 365 271 q 365 233 362 177 q 359 113 359 91 q 359 41 399 41 q 413 41 420 44 q 428 48 431 48 q 438 48 438 41 q 438 29 419 18 l 400 8 l 383 -1 q 366 -11 345 -11 q 302 -11 272 45 q 182 -13 122 -13 q 80 -13 57 11 q 33 35 33 77 q 33 154 101 189 q 142 210 264 233 z m 254 205 q 212 208 174 175 q 136 143 136 104 q 136 39 188 39 q 220 39 244 54 q 257 62 262 81 q 267 100 267 144 l 267 182 l 267 192 l 264 203 q 262 205 254 205 z"},"L":{"x_min":0,"x_max":565,"ha":565,"o":"m 232 152 q 232 61 254 50 q 266 43 302 43 q 468 43 537 141 q 558 171 563 171 q 572 171 572 151 q 572 89 532 40 q 496 -3 435 -3 q 422 -3 388 0 q 379 0 330 3 l 276 5 q 250 7 215 7 q 159 7 93 -1 q 73 -3 66 -3 q 52 -3 52 9 q 52 18 65 21 q 96 30 108 55 q 120 81 120 138 l 120 546 q 120 624 55 634 l 26 639 q 7 642 7 654 q 7 668 22 668 q 27 668 36 667 q 43 667 55 665 l 76 664 q 106 661 121 661 q 144 661 195 667 q 233 670 273 670 q 302 670 302 657 q 302 645 281 644 q 232 641 232 576 z"},"3":{"x_min":0,"x_max":500,"ha":500,"o":"m 37 82 q 43 82 59 67 q 103 24 174 24 q 236 24 282 74 q 329 124 329 191 q 329 245 303 278 q 278 311 238 311 q 223 311 194 306 q 188 305 184 305 q 171 304 171 319 q 171 327 193 336 q 235 355 268 399 q 301 443 301 481 q 301 523 274 552 q 247 581 206 581 q 162 581 124 550 l 97 527 l 87 520 l 81 517 q 72 516 72 527 q 73 545 107 578 q 171 638 249 638 q 307 638 348 603 q 390 568 390 518 q 390 488 370 459 q 351 430 306 391 q 301 387 301 385 q 301 378 316 377 q 371 372 403 333 q 435 294 435 233 q 435 131 363 59 q 290 -13 187 -13 q 148 -13 107 3 q 66 19 42 44 q 24 62 24 70 q 23 82 37 82 z"},";":{"x_min":0,"x_max":266,"ha":266,"o":"m 124 154 q 140 155 163 136 q 197 106 197 56 q 197 -24 133 -90 q 79 -146 49 -148 q 42 -148 42 -141 q 42 -134 58 -122 q 80 -104 93 -78 q 107 -51 107 -25 q 107 17 62 47 q 42 61 42 72 q 42 85 76 119 q 110 153 124 154 z m 118 370 q 131 370 151 348 l 180 317 l 199 297 q 203 291 203 284 q 203 272 182 252 q 170 243 154 225 q 130 200 118 200 q 108 200 92 217 q 70 241 57 252 q 33 274 33 286 q 33 297 54 315 q 65 325 85 347 q 106 370 118 370 z"},"J":{"x_min":0,"x_max":333,"ha":333,"o":"m 233 543 l 233 147 l 232 104 q 232 39 218 -4 q 204 -46 167 -88 q 99 -168 50 -168 q 40 -168 31 -166 l 4 -157 l -20 -150 q -30 -145 -30 -130 q -30 -121 -27 -109 l -16 -47 q -13 -33 -6 -33 q 7 -33 27 -55 l 46 -76 q 68 -100 84 -100 q 122 -100 122 -7 l 121 29 l 121 397 q 121 510 118 548 q 115 585 106 604 q 97 621 80 627 q 63 634 20 638 q 5 640 5 652 q 5 669 28 669 q 39 669 61 667 q 130 661 139 661 q 156 661 190 665 q 260 673 272 673 q 294 673 294 660 q 294 652 279 647 q 252 639 243 617 q 233 595 233 543 z"},"V":{"x_min":0,"x_max":688,"ha":688,"o":"m 259 427 l 367 160 q 375 143 380 142 q 386 142 392 156 l 502 400 q 556 520 556 573 q 556 604 535 623 q 514 642 474 648 q 457 650 457 661 q 457 672 469 672 q 476 672 497 671 l 548 668 q 583 667 597 667 q 642 667 674 672 q 687 674 694 674 q 703 674 703 662 q 703 651 688 648 q 660 643 642 619 q 624 595 591 521 l 518 352 l 435 168 q 394 78 391 71 q 364 17 361 9 q 352 -13 338 -13 q 329 -13 323 -1 l 312 23 l 300 53 l 184 316 q 142 413 113 489 q 80 579 60 608 q 40 637 6 644 q -14 648 -14 660 q -14 673 0 673 q 4 673 15 672 q 40 669 73 669 l 155 667 l 206 669 q 239 671 249 671 q 262 671 262 658 q 262 647 242 643 q 206 637 206 601 q 206 557 259 427 z"},"\"":{"x_min":0,"x_max":304,"ha":304,"o":"m 69 391 l 41 551 q 36 580 36 598 q 36 645 84 645 q 128 645 128 595 q 128 577 124 550 l 96 391 q 93 375 82 375 q 72 375 69 391 z m 209 391 l 181 551 q 176 579 176 598 q 176 645 225 645 q 268 645 268 595 q 268 578 263 550 l 235 391 q 233 375 222 375 q 211 375 209 391 z"},"7":{"x_min":0,"x_max":500,"ha":500,"o":"m 357 534 l 228 534 l 184 535 l 135 526 q 102 511 96 469 q 93 448 83 447 q 68 446 68 471 q 68 513 83 560 l 96 598 l 99 616 q 102 628 117 628 q 122 628 136 627 q 151 626 196 626 l 395 626 q 425 626 433 620 q 440 615 440 593 q 440 533 395 426 l 350 321 q 282 161 282 79 q 282 33 289 5 l 295 -17 q 296 -20 296 -23 q 296 -31 281 -34 q 278 -35 272 -37 q 232 -49 212 -49 q 184 -49 175 -36 q 165 -23 165 14 q 165 128 244 245 l 295 321 q 331 372 360 434 q 390 497 390 518 q 390 534 357 534 z"},"S":{"x_min":0,"x_max":491,"ha":491,"o":"m 222 680 q 268 680 312 662 l 345 648 q 367 640 376 640 q 383 640 390 643 l 409 652 q 413 654 417 654 q 427 654 427 638 l 426 599 q 426 589 427 581 l 433 533 l 438 489 q 439 483 439 479 q 439 458 427 458 q 418 458 414 477 q 400 545 343 595 q 286 645 222 645 q 178 645 145 615 q 112 585 112 544 q 112 507 141 479 q 160 462 257 422 q 373 375 410 330 q 455 275 455 198 q 455 113 393 50 q 332 -13 249 -13 q 215 -13 142 10 q 108 21 92 24 q 69 29 66 33 q 62 37 60 58 q 57 81 45 125 q 26 191 26 209 q 26 233 42 233 q 48 233 51 221 q 75 137 134 80 q 193 23 257 23 q 306 23 345 61 q 384 99 384 147 q 384 186 364 211 q 343 236 293 258 l 219 291 q 114 338 77 380 q 39 421 39 491 q 39 571 92 625 q 144 680 222 680 z"},"}":{"x_min":0,"x_max":282,"ha":282,"o":"m 115 418 l 115 552 q 115 619 99 645 q 83 671 31 686 q 15 690 15 700 q 15 713 50 713 l 86 713 q 144 713 174 677 q 204 641 204 571 l 204 431 q 204 382 215 355 q 225 329 253 306 q 262 299 262 295 q 262 291 253 284 q 225 260 214 234 q 204 208 204 159 l 204 19 q 204 -51 174 -87 q 144 -123 86 -123 l 50 -123 q 27 -123 21 -121 q 15 -119 15 -110 q 15 -98 31 -94 l 51 -89 q 115 -75 115 38 l 115 171 q 115 247 152 278 l 161 286 q 168 292 168 295 q 168 298 161 304 l 152 312 q 115 343 115 418 z"},"Z":{"x_min":0,"x_max":535,"ha":535,"o":"m 203 2 l 111 0 q 73 0 56 -6 q 48 -9 44 -9 q 33 -9 34 0 q 35 3 39 9 q 48 21 64 52 l 132 178 l 227 354 q 311 511 329 564 l 341 599 q 342 604 342 606 q 341 619 309 619 l 225 622 l 195 619 q 89 604 77 515 q 75 503 65 503 q 52 503 52 536 q 52 551 57 573 q 61 591 61 606 l 60 638 l 62 651 q 64 666 75 666 q 81 666 88 665 q 113 661 249 661 q 299 661 334 665 l 412 672 q 459 676 483 676 q 508 676 508 663 q 508 654 494 629 q 459 572 390 434 l 330 316 l 266 191 q 230 123 224 110 q 208 76 201 64 q 197 59 197 54 q 197 42 224 42 l 285 41 l 330 46 q 446 64 506 151 q 518 167 522 167 q 529 167 529 151 q 529 84 490 37 q 451 -10 395 -10 q 381 -10 369 -8 l 309 -2 q 256 2 203 2 z"},"x":{"x_min":0,"x_max":452,"ha":452,"o":"m 204 162 l 143 101 q 115 73 115 56 q 115 44 125 35 q 135 25 150 23 q 165 21 165 13 q 165 1 152 1 q 149 1 137 2 q 133 2 122 2 q 119 2 92 4 q 78 5 68 5 q 49 5 37 4 q 16 1 10 1 q 1 1 1 10 q 1 19 13 23 q 40 35 91 86 l 186 182 l 87 310 q 41 369 12 378 q 0 381 0 388 l 0 393 l 3 400 q 5 402 12 402 q 15 402 21 402 q 59 397 113 397 q 177 397 214 401 q 222 402 226 402 q 236 402 236 392 q 236 380 216 376 q 188 370 188 350 q 188 334 210 305 l 255 249 l 301 297 q 342 341 342 359 q 342 380 309 380 q 294 380 294 392 q 295 402 304 402 q 307 402 312 401 q 337 397 375 397 q 394 397 402 398 l 436 400 q 442 401 450 401 q 458 401 458 391 q 458 381 449 379 q 410 371 370 331 l 270 229 l 372 100 q 404 59 418 47 q 432 35 455 27 q 473 21 473 11 q 473 0 460 0 q 453 0 446 1 q 401 5 350 5 q 304 5 264 2 q 252 1 244 1 q 231 0 231 11 q 231 20 246 24 q 276 33 276 53 q 276 62 271 69 l 255 91 z"},")":{"x_min":0,"x_max":280,"ha":280,"o":"m 42 713 q 50 714 89 662 q 159 568 191 480 q 224 392 224 295 q 224 215 197 132 q 171 49 126 -12 l 63 -98 q 52 -113 45 -113 q 41 -113 35 -109 q 29 -104 29 -100 q 29 -95 35 -86 q 143 81 143 296 q 143 497 42 675 q 30 695 30 700 q 29 712 42 713 z"},"&":{"x_min":0,"x_max":884,"ha":884,"o":"m 313 672 q 350 672 400 654 q 438 640 447 640 q 454 640 460 644 l 471 651 q 474 654 479 654 q 490 654 490 631 q 490 625 490 615 q 488 593 488 589 q 488 576 494 540 q 499 503 502 495 q 504 489 504 486 q 504 475 492 475 q 479 475 473 498 q 456 560 411 601 q 366 642 316 642 q 285 642 263 623 q 241 603 241 575 q 241 527 292 452 q 342 377 433 292 q 565 166 588 167 q 603 168 618 202 q 632 235 632 266 q 632 312 615 333 q 597 353 552 356 q 516 359 516 372 q 516 383 529 383 q 537 383 546 383 q 597 379 628 379 q 666 379 677 381 l 697 385 q 702 386 707 386 q 722 386 722 373 q 722 364 711 360 q 693 354 689 347 q 685 341 685 320 q 685 277 659 217 q 633 158 633 149 q 635 121 694 86 q 752 52 800 52 q 822 52 837 56 l 865 64 q 869 65 873 65 q 885 65 884 56 q 883 39 829 20 q 776 0 732 0 q 661 0 573 42 q 559 49 552 49 q 544 49 531 43 l 487 23 q 412 -9 316 -9 q 190 -9 112 56 q 33 121 33 226 q 33 288 65 338 q 97 389 150 414 q 172 424 172 435 q 172 440 168 450 q 155 481 155 522 q 155 586 200 629 q 246 672 313 672 z m 182 403 q 170 404 141 379 q 108 352 110 314 q 113 249 175 169 q 220 109 283 76 q 346 42 412 42 q 452 42 480 53 q 509 64 509 79 q 509 91 484 108 q 399 165 321 240 q 243 316 211 372 q 194 402 182 403 z"},"_":{"x_min":0,"x_max":500,"ha":500,"o":"m 16 -90 l 483 -90 l 483 -147 l 16 -147 z"},"v":{"x_min":0,"x_max":430,"ha":430,"o":"m 161 309 l 228 158 q 241 130 249 129 q 261 128 307 220 q 352 312 352 339 q 352 381 302 385 q 290 385 290 396 q 290 406 303 406 l 329 405 l 359 404 l 399 401 l 420 403 q 432 405 436 405 q 445 405 445 396 q 445 385 432 381 q 414 375 400 348 l 378 303 l 334 214 q 226 -8 208 -8 q 198 -8 190 9 l 185 21 l 63 290 l 54 307 l 35 348 q 21 376 7 381 q -12 389 -13 396 q -14 405 -2 406 l 2 406 q 47 400 74 400 q 93 400 139 403 q 167 406 179 406 q 199 406 203 404 q 208 402 208 395 q 208 386 194 383 q 147 375 147 352 q 147 339 161 309 z"},"O":{"x_min":0,"x_max":774,"ha":774,"o":"m 399 680 q 552 680 646 592 q 739 503 739 359 q 739 202 643 93 q 548 -13 383 -13 q 225 -13 130 79 q 35 172 35 327 q 35 393 59 459 q 83 524 124 569 q 171 621 244 651 q 317 680 399 680 z m 364 644 q 266 644 210 571 q 155 498 155 368 q 155 215 225 119 q 294 23 405 23 q 505 23 565 102 q 625 182 625 314 q 625 391 597 464 q 569 537 523 580 q 456 644 364 644 z"},"(":{"x_min":0,"x_max":280,"ha":280,"o":"m 238 713 q 243 713 247 708 q 251 704 250 700 q 250 695 239 675 q 138 497 138 296 q 138 81 246 -86 q 251 -95 251 -100 q 251 -104 246 -109 q 240 -113 235 -113 q 229 -113 217 -98 l 154 -12 q 109 50 83 133 q 57 215 57 295 q 57 392 89 480 q 122 568 191 662 q 229 713 238 713 z"},"C":{"x_min":0,"x_max":672,"ha":672,"o":"m 374 680 q 465 680 533 641 l 565 622 q 575 616 583 616 q 593 616 598 624 l 608 639 q 610 643 617 643 q 632 643 632 611 l 632 576 l 632 531 l 636 494 l 641 472 q 644 456 644 443 q 644 425 630 425 q 622 425 620 437 q 616 455 593 493 q 569 532 548 554 q 463 646 359 646 q 267 646 209 570 q 152 494 152 373 q 152 215 246 121 q 317 50 400 50 q 450 50 505 74 q 560 98 592 133 l 624 167 q 630 175 637 176 q 646 176 646 165 q 646 145 607 101 q 506 -13 358 -13 q 214 -13 125 79 q 35 170 35 317 q 35 398 69 475 q 103 552 159 601 q 251 680 374 680 z"},"W":{"x_min":0,"x_max":986,"ha":986,"o":"m 774 674 q 785 675 807 673 q 863 667 907 667 q 952 667 986 674 l 990 675 q 1001 675 1001 663 q 1001 652 985 647 q 957 637 940 617 q 923 598 908 557 l 879 486 l 834 376 q 784 250 772 221 q 728 106 715 78 q 688 17 683 4 q 677 -13 664 -13 q 647 -13 639 8 q 636 16 616 65 q 540 249 509 343 q 503 364 495 364 q 485 363 471 327 q 456 288 409 185 q 361 83 339 42 q 330 24 327 17 q 314 -13 297 -13 q 281 -13 271 20 q 268 32 257 57 q 190 209 129 385 q 88 502 86 508 l 60 574 q 34 641 -1 644 q -14 645 -14 657 q -14 670 1 670 q 5 670 38 669 l 86 667 q 117 665 136 665 q 170 665 215 669 l 223 669 q 240 669 240 656 q 240 644 222 644 q 179 644 179 602 q 179 579 223 455 l 271 321 l 301 234 l 317 188 q 330 153 340 153 q 353 153 374 202 q 375 206 411 279 q 423 304 448 362 q 462 394 472 416 q 476 424 476 428 q 476 432 472 441 q 464 460 449 505 q 424 579 402 610 q 380 642 350 647 q 336 649 336 661 q 336 673 355 673 q 366 673 378 672 q 447 667 459 667 q 542 667 556 668 q 578 671 586 671 q 599 672 599 656 q 599 648 588 645 l 573 640 q 543 630 543 598 q 543 567 594 428 l 645 289 l 666 231 q 674 207 677 199 q 688 163 701 163 q 713 164 726 200 q 729 209 756 273 q 768 301 795 378 q 810 417 833 478 q 856 542 856 569 q 856 604 839 621 q 822 637 774 647 q 760 650 761 659 q 762 674 774 674 z"},"A":{"x_min":0,"x_max":688,"ha":688,"o":"m 375 613 l 597 103 q 613 64 636 45 q 658 26 694 20 q 703 18 703 6 q 703 -7 691 -7 q 685 -6 673 -4 q 635 4 552 4 q 468 4 438 -3 q 430 -5 425 -5 q 411 -5 411 9 q 411 16 422 19 q 445 26 461 43 q 476 61 476 81 q 476 108 434 201 q 420 229 405 233 q 389 237 292 237 l 226 237 l 182 229 q 164 221 141 165 l 125 127 q 119 111 119 95 q 119 33 205 23 q 223 21 223 9 q 222 -3 205 -3 q 196 -3 180 0 q 148 6 123 6 q 100 6 48 1 q 10 -3 1 -3 q -13 -3 -13 9 q -13 19 1 23 q 27 32 43 54 q 59 76 90 147 l 224 455 q 240 492 246 505 l 292 599 q 315 645 315 645 q 315 643 315 643 q 315 643 323 661 q 331 680 336 680 q 344 680 363 639 z m 393 307 l 329 457 q 306 510 296 510 q 291 510 275 476 l 266 455 l 208 325 l 203 312 q 200 305 200 300 q 200 283 235 283 l 379 283 q 398 283 398 293 q 398 296 396 302 z"},"f":{"x_min":0,"x_max":308,"ha":308,"o":"m 268 351 l 221 351 q 191 351 191 320 l 191 120 q 191 67 204 48 q 216 30 257 22 q 273 19 273 8 q 273 -3 259 -3 q 255 -3 236 -1 q 188 6 154 6 q 115 6 73 -1 q 63 -2 58 -2 q 48 -2 48 7 q 48 14 57 19 l 71 27 q 93 40 93 72 l 93 327 q 93 349 69 349 l 54 349 l 42 349 q 23 349 23 357 q 23 361 25 366 q 27 372 29 385 q 31 396 40 396 l 63 397 q 81 398 87 405 q 94 411 95 430 q 104 537 141 604 q 196 703 268 703 q 315 703 315 676 q 315 672 312 664 q 303 629 300 615 q 299 603 292 603 q 285 603 283 609 l 281 620 q 278 633 263 644 q 248 656 233 656 q 214 656 202 626 q 191 597 191 547 l 190 473 l 189 437 q 189 415 197 407 q 205 399 226 399 q 269 399 277 401 q 285 402 299 416 l 304 418 q 310 418 310 412 l 307 407 l 295 371 q 291 356 286 354 q 282 351 268 351 z"},"Q":{"x_min":0,"x_max":770,"ha":770,"o":"m 405 680 q 554 680 645 589 q 735 499 735 351 q 735 245 688 159 q 660 107 622 74 q 583 41 520 13 q 502 5 501 0 q 501 -7 532 -23 l 587 -52 q 626 -73 668 -73 q 696 -73 729 -47 q 734 -43 738 -42 q 742 -42 747 -48 q 751 -54 750 -59 q 750 -69 716 -98 q 651 -155 592 -155 q 556 -155 516 -139 q 476 -124 406 -82 q 321 -32 292 -19 q 264 -6 238 -6 q 199 -6 172 -39 q 145 -71 145 -117 q 145 -133 132 -133 q 116 -133 116 -112 l 115 -75 l 122 -42 q 133 -11 172 28 q 177 33 177 35 q 177 39 154 55 q 100 95 68 168 q 35 241 35 322 q 35 482 138 581 q 240 680 405 680 z m 356 642 q 261 642 206 573 q 151 504 151 386 q 151 228 225 126 q 299 23 413 23 q 509 23 567 99 q 625 175 625 300 q 625 442 547 542 q 468 642 356 642 z"},"w":{"x_min":0,"x_max":661,"ha":661,"o":"m 607 295 l 472 3 q 467 -8 460 -8 q 448 -8 439 13 l 351 221 q 344 238 337 238 q 332 238 319 215 l 206 3 q 200 -8 191 -8 q 186 -8 181 2 l 49 308 l 39 334 q 22 373 -4 382 q -13 385 -13 393 q -13 404 -6 404 q 0 404 4 403 q 44 397 97 397 q 121 397 166 402 q 174 403 178 403 q 190 403 191 392 q 191 385 183 381 q 147 369 147 338 q 147 324 155 307 l 216 159 q 227 132 237 132 q 243 132 250 146 l 316 261 q 323 274 323 280 q 322 295 299 337 q 281 372 253 380 q 243 383 243 392 q 243 404 252 404 q 260 404 268 402 q 299 397 356 397 q 366 397 399 400 l 426 401 q 438 402 441 402 q 455 402 455 392 q 455 383 447 380 l 431 376 q 408 371 408 343 q 408 330 416 313 l 481 155 q 487 141 494 141 q 502 141 515 165 l 534 203 q 583 300 583 336 q 583 376 539 380 q 523 382 523 393 q 523 404 538 404 q 563 404 580 403 l 630 400 l 653 402 q 661 402 664 402 q 675 402 675 391 q 675 383 665 379 q 638 368 613 310 z"},"-":{"x_min":0,"x_max":192,"ha":192,"o":"m 192 292 l 192 247 q 192 232 187 227 q 182 221 163 215 l 21 167 q 14 164 9 164 q 0 163 0 186 l 0 225 q 0 241 5 247 q 10 253 27 259 l 174 309 q 180 311 184 311 q 192 311 192 292 z"},"E":{"x_min":0,"x_max":589,"ha":589,"o":"m 232 555 l 232 449 q 232 403 239 391 q 245 379 271 379 l 285 379 l 307 380 l 348 380 q 396 380 423 433 l 434 457 q 438 466 449 466 q 459 467 459 453 q 459 449 458 432 q 457 419 457 410 q 457 395 461 337 q 464 299 464 271 l 465 247 q 465 240 463 237 q 461 234 456 234 q 443 233 440 252 q 434 294 411 315 q 398 327 380 331 q 362 334 312 334 l 278 334 q 255 334 246 327 q 238 320 235 298 q 232 274 232 221 l 232 177 q 232 108 243 78 q 251 56 262 48 q 273 41 297 41 q 495 41 556 161 q 560 167 562 167 q 567 168 571 164 q 575 160 575 154 q 575 106 549 61 q 528 23 496 7 q 463 -10 410 -10 q 379 -10 341 -6 l 284 0 q 253 2 200 2 q 164 2 91 -2 q 71 -3 62 -3 q 51 -3 50 7 q 49 16 61 21 q 88 31 98 43 q 108 55 114 86 q 120 112 120 156 l 120 543 q 120 598 102 618 q 84 637 28 645 q 15 647 15 659 q 15 670 31 670 q 34 670 45 669 q 54 669 69 669 l 119 667 l 304 665 q 463 665 500 669 q 504 670 507 670 q 521 670 521 654 q 521 643 524 614 q 528 571 528 553 q 528 516 509 515 q 500 514 500 536 q 500 584 465 606 q 429 628 350 628 l 291 628 l 257 624 q 232 616 232 575 z"},"s":{"x_min":0,"x_max":333,"ha":333,"o":"m 187 413 q 220 413 259 402 q 279 396 281 383 l 282 361 l 284 331 l 285 314 q 286 311 286 308 q 286 299 276 299 q 268 299 250 331 q 216 394 163 394 q 137 394 118 377 q 99 360 99 338 q 99 297 156 273 l 189 259 q 232 241 248 231 q 264 221 278 203 q 302 171 302 125 q 302 67 263 27 q 225 -13 169 -13 q 139 -13 95 -3 l 62 5 l 40 9 q 29 11 29 22 q 29 26 29 35 q 30 43 30 54 l 29 107 l 28 131 q 28 142 31 145 q 33 147 42 147 q 50 147 53 134 q 59 104 85 61 q 117 10 168 10 q 198 10 217 28 q 237 46 237 74 q 237 105 218 123 q 199 141 146 162 q 83 187 59 214 q 35 242 35 289 q 35 346 76 379 q 117 413 187 413 z"},">":{"x_min":0,"x_max":500,"ha":500,"o":"m 42 68 l 42 118 l 326 300 l 42 492 l 42 623 l 459 341 l 459 333 z"},"l":{"x_min":0,"x_max":268,"ha":268,"o":"m 183 565 l 183 133 l 184 117 q 184 69 197 50 q 211 31 251 24 q 264 22 266 21 q 268 19 268 11 q 268 0 258 0 q 253 0 241 1 q 202 6 145 6 q 82 6 56 1 q 48 0 44 0 q 34 0 34 12 q 34 19 46 23 q 83 39 83 87 l 84 116 l 85 129 l 85 523 q 85 586 74 609 q 64 632 36 632 q 21 632 21 645 q 21 652 27 655 q 32 657 56 662 q 118 675 156 698 l 172 708 q 177 710 181 710 q 188 711 188 701 q 188 695 188 676 q 183 610 183 565 z"},"8":{"x_min":0,"x_max":500,"ha":500,"o":"m 264 638 q 340 638 389 598 q 438 558 438 496 q 438 456 415 424 q 391 393 351 379 q 326 371 326 366 q 325 361 353 350 q 467 301 467 184 q 467 95 407 41 q 347 -13 249 -13 q 152 -13 93 37 q 33 86 33 167 q 33 257 130 310 q 139 315 140 318 q 140 321 130 329 q 61 379 61 460 q 61 538 118 588 q 175 638 264 638 z m 249 608 q 198 608 164 580 q 131 552 131 510 q 131 462 183 426 q 242 386 294 386 q 328 386 351 414 q 375 442 375 484 q 375 536 338 572 q 302 608 249 608 z m 173 300 q 166 301 153 292 q 139 283 131 273 q 105 242 105 189 q 105 115 149 66 q 193 18 261 18 q 319 18 356 49 q 393 80 393 129 q 393 215 299 250 l 249 270 q 231 276 193 293 q 177 300 173 300 z"},"\\":{"x_min":0,"x_max":401,"ha":401,"o":"m 63 691 l 409 -93 q 411 -99 411 -102 q 411 -112 388 -112 q 373 -112 364 -92 l 23 691 q 21 695 20 698 l 20 701 l 33 708 l 43 707 q 58 703 63 691 z"},"e":{"x_min":0,"x_max":426,"ha":426,"o":"m 224 414 q 299 414 354 354 q 400 304 400 253 q 400 234 374 234 l 351 235 l 340 235 l 310 235 l 218 233 l 169 233 l 153 233 q 139 233 135 230 q 129 225 129 212 q 129 147 172 98 q 214 48 269 48 q 331 48 368 84 l 384 99 q 388 103 392 103 q 403 103 403 93 q 403 79 365 45 q 299 -13 223 -13 q 138 -13 85 45 q 32 103 32 195 q 32 284 89 349 q 146 414 224 414 z m 210 389 q 177 389 152 356 q 127 324 127 279 q 127 265 134 262 q 141 259 172 259 q 188 259 207 260 q 250 262 257 262 q 300 262 300 289 q 300 328 273 359 q 245 389 210 389 z"},"b":{"x_min":0,"x_max":513,"ha":513,"o":"m 170 340 q 170 333 173 333 l 178 338 q 228 413 314 413 q 390 413 436 363 q 482 312 482 230 q 482 124 419 55 q 357 -13 260 -13 q 227 -13 190 -2 q 154 9 134 26 q 128 32 125 31 q 120 31 104 9 q 84 -18 77 -18 q 69 -19 69 -5 q 69 4 70 19 q 73 54 73 71 l 73 556 q 73 592 61 608 q 48 624 20 624 q 11 624 11 635 q 11 645 22 647 l 53 654 q 97 665 155 700 q 159 703 163 703 q 170 704 170 677 z m 170 295 l 170 107 q 170 84 196 55 q 232 13 287 13 q 338 13 368 53 q 399 93 399 162 q 399 243 358 297 q 318 352 257 352 q 198 352 170 295 z"},"%":{"x_min":0,"x_max":757,"ha":757,"o":"m 198 667 q 268 667 316 623 q 364 578 364 514 q 364 446 318 398 q 271 351 204 351 q 129 351 81 394 q 33 437 33 503 q 33 569 83 618 q 132 667 198 667 z m 197 650 q 156 650 134 615 q 111 580 111 517 q 111 454 137 411 q 164 369 203 369 q 244 369 268 404 q 292 439 292 498 q 292 564 265 607 q 238 650 197 650 z m 568 627 l 208 16 l 204 9 q 199 0 185 0 q 173 0 174 7 l 179 17 l 554 654 l 561 666 q 563 669 570 669 q 585 669 585 662 q 585 655 578 644 z m 558 316 q 627 316 676 272 q 724 227 724 163 q 724 95 677 47 q 631 0 563 0 q 489 0 441 43 q 393 85 393 152 q 393 218 442 267 q 492 316 558 316 z m 557 299 q 516 299 493 264 q 471 229 471 166 q 471 103 497 60 q 524 18 563 18 q 604 18 628 53 q 652 88 652 147 q 652 213 625 256 q 598 299 557 299 z"},"m":{"x_min":0,"x_max":823,"ha":823,"o":"m 738 231 l 738 95 q 738 58 750 43 q 762 28 796 24 q 813 21 813 11 q 813 -2 799 -2 q 781 -2 729 6 q 703 10 688 10 q 667 10 625 3 q 612 0 605 0 q 597 0 597 10 q 597 17 607 23 q 628 34 635 44 q 641 53 641 75 l 640 99 l 640 232 q 640 299 618 330 q 596 361 548 361 q 512 361 488 341 q 465 320 465 288 l 465 112 q 465 64 479 45 q 493 27 531 23 q 549 21 549 11 q 549 -3 531 -3 q 510 -3 461 4 q 431 8 410 8 q 394 8 358 1 q 346 0 336 -1 q 323 -1 323 10 q 323 18 331 21 q 353 31 360 43 q 367 55 367 83 l 367 104 l 367 230 q 367 297 346 328 q 325 359 280 359 q 242 359 217 335 q 191 311 191 273 l 191 97 q 191 62 205 48 q 218 34 261 23 q 276 20 276 11 q 277 0 260 0 q 248 0 232 1 l 188 6 q 160 9 140 9 q 108 9 82 2 q 69 0 62 0 q 48 0 48 11 q 48 18 58 21 q 77 31 85 44 q 93 58 93 82 l 93 108 l 93 283 q 93 326 84 338 q 75 351 42 351 q 29 351 29 361 q 29 373 54 377 l 93 389 l 121 398 q 146 406 177 427 q 181 430 184 430 q 191 430 191 419 l 191 407 l 189 374 q 189 369 189 363 q 189 344 197 343 q 200 343 204 348 l 224 371 q 266 417 327 417 q 359 417 394 395 q 430 373 439 347 q 445 332 448 332 q 450 332 458 341 q 482 375 520 396 q 557 417 594 417 q 738 417 738 231 z"},"#":{"x_min":0,"x_max":500,"ha":500,"o":"m 170 440 l 186 570 l 187 580 q 190 604 206 604 q 224 604 224 592 q 224 590 223 584 l 222 576 l 205 440 l 324 440 l 340 574 l 341 580 l 342 587 q 345 604 360 604 q 378 604 378 592 q 378 588 377 584 l 376 576 l 359 440 l 442 440 q 455 439 455 427 l 454 420 q 453 413 453 406 q 451 375 437 375 l 352 375 l 337 262 l 420 262 q 433 261 433 249 q 433 247 432 243 q 431 235 431 229 q 429 197 415 197 l 330 197 l 313 67 q 312 60 312 52 q 311 32 293 32 q 276 32 276 47 q 276 50 277 57 l 278 66 l 294 197 l 175 197 l 159 65 l 158 50 q 156 32 139 32 q 122 32 122 47 q 122 50 123 57 q 123 60 124 67 l 140 197 l 77 197 l 62 196 l 52 199 q 45 203 45 211 q 45 214 46 219 q 46 226 47 233 q 49 262 68 262 l 148 262 l 162 375 l 99 375 l 84 374 l 73 377 q 67 380 67 389 q 67 392 68 397 l 69 411 q 71 440 89 440 z m 197 375 l 183 262 l 302 262 l 316 375 z"},",":{"x_min":0,"x_max":266,"ha":266,"o":"m 124 154 q 140 155 163 136 q 197 106 197 56 q 197 -24 133 -90 q 79 -146 49 -148 q 42 -148 42 -141 q 42 -134 58 -122 q 80 -104 93 -78 q 107 -51 107 -25 q 107 17 62 47 q 42 61 42 72 q 42 85 76 119 q 110 153 124 154 z"},"n":{"x_min":0,"x_max":566,"ha":566,"o":"m 481 206 l 481 107 q 481 75 485 64 q 488 52 500 42 q 518 28 545 25 q 561 23 561 13 q 561 -1 526 -1 q 519 -1 505 0 l 473 4 q 452 7 439 7 q 393 7 365 1 q 354 0 346 0 q 335 0 335 10 q 335 18 346 22 q 368 30 375 45 q 382 61 382 98 l 382 213 q 382 280 356 319 q 329 357 283 357 q 242 357 217 335 q 192 312 192 276 l 192 113 q 192 68 209 48 q 226 27 266 23 q 279 22 279 12 q 279 -1 262 -1 q 246 -1 224 1 q 168 8 147 8 q 119 8 82 3 q 64 0 58 0 q 46 0 46 11 q 46 18 54 21 q 79 30 86 41 q 93 52 93 82 l 93 98 l 93 270 l 93 289 q 93 324 86 337 q 79 351 60 351 l 37 351 q 32 351 30 354 q 27 356 27 361 q 27 370 35 374 q 42 377 78 386 q 139 400 180 429 q 183 432 186 432 q 192 432 192 422 l 190 398 l 190 370 l 193 352 q 195 346 199 345 q 203 345 215 358 q 260 413 333 413 q 413 413 447 365 q 481 317 481 206 z"},"h":{"x_min":0,"x_max":552,"ha":552,"o":"m 183 304 l 183 120 l 184 105 q 184 67 194 51 q 204 34 232 26 l 254 21 q 265 18 265 9 q 264 -3 250 -2 q 244 -1 231 1 q 196 8 160 8 q 137 8 85 3 q 64 1 56 1 q 36 1 36 13 q 36 20 46 23 q 85 37 85 97 l 85 573 l 83 596 q 79 613 69 620 q 59 627 30 632 q 20 633 20 642 q 20 650 27 654 q 34 657 63 664 q 110 673 152 698 q 175 712 182 712 q 190 712 190 702 q 190 695 188 678 q 183 630 183 564 l 183 349 q 183 341 186 341 l 190 344 q 252 413 320 413 q 396 413 437 355 q 467 312 467 209 l 467 128 l 467 108 q 467 69 471 57 q 475 44 489 34 q 505 22 531 21 q 547 20 547 10 q 547 0 533 0 l 512 -1 l 495 0 q 460 5 435 5 q 382 5 344 -1 q 338 -2 335 -2 q 323 -2 323 9 q 323 16 332 19 q 354 28 362 43 q 369 59 369 97 l 369 199 q 369 280 347 313 q 319 357 267 357 q 211 357 183 304 z"},"z":{"x_min":0,"x_max":369,"ha":369,"o":"m 328 374 l 151 128 q 141 114 140 104 q 139 81 233 81 q 319 81 338 104 q 344 111 348 111 q 359 111 359 102 q 359 90 344 63 q 299 -13 257 -13 q 250 -13 233 -9 q 169 5 90 5 q 72 5 64 4 l 46 1 q 43 1 41 1 q 30 1 30 11 q 30 19 47 42 l 235 300 q 241 308 241 312 q 241 316 230 316 l 217 317 l 173 317 l 133 316 q 108 316 89 303 q 69 291 63 270 q 59 255 49 255 q 39 255 39 264 q 39 267 41 272 q 45 284 55 343 q 61 380 68 391 q 76 402 95 402 q 99 402 104 402 q 151 399 164 399 q 235 399 317 407 q 326 408 330 408 q 343 408 342 395 q 342 391 336 384 q 332 378 328 374 z"},"B":{"x_min":0,"x_max":674,"ha":674,"o":"m 120 527 q 120 625 40 635 l 18 638 q 7 639 7 651 q 7 666 21 666 l 33 665 l 69 663 q 115 661 127 661 q 163 661 256 669 q 313 675 353 675 q 457 675 520 630 q 583 585 583 511 q 583 426 504 392 q 486 384 486 379 q 485 370 505 367 q 566 356 601 314 q 637 271 637 208 q 637 111 572 54 q 507 -2 397 -2 l 298 1 l 222 2 q 148 2 95 -3 q 78 -5 63 -5 q 49 -5 49 7 q 49 18 62 21 q 120 30 120 122 z m 232 569 l 232 429 q 232 400 246 389 q 260 377 294 377 l 361 376 l 392 377 q 475 388 475 478 q 475 550 429 595 q 382 640 307 640 q 263 640 248 625 q 232 611 232 569 z m 232 244 l 232 163 l 234 144 l 237 103 q 243 32 349 32 q 453 32 491 83 q 522 125 522 183 q 522 298 420 324 q 361 339 286 339 q 251 339 242 323 q 232 306 232 244 z"},"K":{"x_min":0,"x_max":734,"ha":734,"o":"m 232 525 l 232 348 q 232 330 241 329 q 245 329 264 344 l 312 387 l 380 447 q 515 568 515 612 q 515 626 502 635 q 490 644 469 644 q 453 644 453 657 q 453 669 471 669 q 491 669 512 667 q 564 661 585 661 q 601 661 624 664 q 674 669 693 669 q 710 669 710 655 q 710 645 689 641 q 655 636 611 605 q 568 574 488 499 q 451 463 437 452 q 396 417 396 400 q 396 389 418 358 l 453 310 q 575 142 630 86 q 668 47 739 28 l 749 25 q 761 21 761 9 q 760 -2 746 -2 q 740 -2 731 -1 q 684 3 650 3 q 635 3 618 1 q 586 -2 579 -2 q 553 -2 533 23 q 531 25 514 46 q 472 96 406 184 q 340 272 324 299 q 311 322 302 322 q 296 322 287 313 l 272 299 l 251 278 q 239 266 236 252 q 232 239 232 196 l 232 175 q 232 96 249 63 q 265 29 306 26 q 333 24 333 12 q 333 -3 316 -3 q 307 -3 286 1 q 259 5 218 5 q 164 5 115 0 q 83 -2 64 -2 q 45 -2 45 12 q 45 21 58 23 q 93 29 107 54 q 120 80 120 142 l 120 534 l 121 553 l 116 581 q 109 607 89 621 q 68 635 30 639 q 19 640 16 643 q 13 646 13 657 q 13 668 27 668 q 39 668 51 667 q 102 662 169 662 q 226 662 272 667 q 285 668 293 668 q 308 669 308 656 q 308 647 295 644 q 253 633 243 616 q 233 599 233 542 z"},"R":{"x_min":0,"x_max":690,"ha":690,"o":"m 232 190 q 232 97 249 64 q 266 31 316 26 q 337 24 337 11 q 337 -3 320 -3 q 315 -3 300 -1 q 258 2 219 2 q 187 2 161 0 l 120 -4 l 87 -7 q 74 -8 68 -8 q 51 -8 51 5 q 51 16 61 19 q 94 29 106 46 q 119 63 119 99 l 119 146 l 120 165 l 120 518 q 120 577 105 597 q 81 629 27 636 q 7 639 7 653 q 7 667 21 667 q 26 667 38 665 q 76 661 121 661 q 170 661 240 667 q 323 673 354 673 q 447 673 508 622 q 569 572 569 495 q 569 447 542 407 q 515 368 467 347 q 458 343 458 337 q 458 333 463 326 q 467 319 476 303 l 520 226 l 570 136 q 596 91 616 73 q 636 56 664 56 q 675 56 685 58 q 690 59 695 59 q 704 59 704 48 q 704 34 664 16 q 625 -2 594 -2 q 543 -2 501 47 q 458 96 391 233 q 364 288 347 302 q 330 316 292 316 l 261 316 l 239 312 q 232 309 232 289 z m 232 572 l 232 403 q 232 372 240 363 q 248 355 278 355 q 365 355 386 358 q 407 361 425 378 q 460 410 460 467 q 460 541 412 589 q 364 637 290 637 q 257 637 244 623 q 232 609 232 572 z"},"T":{"x_min":0,"x_max":643,"ha":643,"o":"m 381 549 l 381 182 q 381 99 405 65 q 429 30 490 26 q 507 25 507 9 q 507 -2 492 -2 q 489 -2 480 -1 l 443 0 l 382 4 q 375 4 363 4 q 334 4 312 3 l 204 -3 q 187 -5 181 -5 q 166 -5 166 7 q 167 18 171 21 q 175 24 190 25 q 228 28 249 53 q 270 78 270 122 l 269 145 l 269 578 q 269 617 228 617 q 130 617 94 603 q 68 592 60 578 q 51 565 37 512 l 33 498 q 27 478 16 478 q 0 478 1 493 q 1 507 6 531 l 11 574 l 17 617 l 20 647 q 22 666 41 666 q 45 666 57 665 q 76 664 111 664 l 211 663 l 330 661 q 444 661 573 667 q 598 668 605 668 q 632 668 634 646 l 636 611 q 637 603 641 571 q 645 545 645 530 q 645 514 631 514 q 620 514 616 532 q 605 578 576 598 q 547 618 492 618 q 418 618 400 606 q 381 595 381 549 z"},"P":{"x_min":0,"x_max":616,"ha":616,"o":"m 232 559 l 232 188 q 232 96 244 66 q 259 30 312 25 l 333 23 q 346 22 346 9 q 346 -4 328 -4 q 323 -4 313 -3 q 298 -1 281 -1 l 206 1 l 187 1 q 152 1 92 -6 q 72 -8 61 -8 q 45 -8 45 3 q 44 15 57 18 q 95 26 107 53 q 120 80 120 152 l 120 528 q 120 584 98 610 q 77 636 27 642 q 9 644 9 657 q 9 671 30 671 q 35 671 53 669 q 106 666 177 666 q 211 666 233 667 l 287 671 q 314 673 337 673 q 475 673 539 615 q 595 562 595 488 q 595 407 536 352 q 476 296 390 296 q 343 296 307 306 q 272 315 272 329 q 272 342 284 342 q 287 342 292 340 q 319 333 344 333 q 402 333 440 371 q 478 409 478 469 q 478 543 434 590 q 391 637 322 637 q 269 637 250 621 q 232 605 232 559 z"},"|":{"x_min":0,"x_max":500,"ha":500,"o":"m 213 667 l 287 667 l 287 -167 l 213 -167 z"},"t":{"x_min":0,"x_max":321,"ha":321,"o":"m 184 352 l 184 114 q 184 70 197 53 q 209 36 242 36 q 255 36 276 42 q 297 49 306 55 q 311 59 313 59 q 319 59 321 49 l 322 44 l 316 36 q 262 -13 191 -13 q 137 -13 111 12 q 85 37 85 89 l 85 352 l 56 352 q 32 352 32 365 q 32 373 44 381 q 65 395 104 435 q 144 475 157 496 q 172 520 179 520 q 183 519 184 512 l 184 399 l 254 399 q 273 399 282 405 l 295 414 q 299 417 304 417 q 312 417 312 409 q 311 405 308 398 q 305 393 302 377 q 297 352 275 352 z"},"M":{"x_min":0,"x_max":884,"ha":884,"o":"m 219 638 l 419 201 q 433 172 441 172 q 450 173 459 192 l 644 584 q 670 640 681 654 q 692 668 710 668 q 717 668 732 667 q 746 666 761 666 q 781 666 811 669 q 826 670 833 670 q 850 670 850 657 q 850 646 837 645 q 791 641 773 614 q 754 586 754 521 l 755 488 l 767 185 l 767 165 q 767 97 791 65 q 814 32 869 26 q 882 24 882 12 q 882 -1 849 -1 q 839 -1 818 1 q 758 8 733 8 q 682 8 648 3 q 616 -2 604 -2 q 592 -2 592 10 q 592 20 606 23 q 634 31 645 48 q 657 65 657 99 q 657 115 656 122 l 641 446 q 641 459 635 459 q 627 459 615 433 l 431 43 l 424 28 q 410 -2 401 -2 q 390 -3 365 51 l 340 102 l 183 451 l 180 458 q 178 461 174 461 q 166 461 166 441 l 166 426 l 159 179 l 159 160 l 163 114 q 177 42 240 26 q 262 21 262 9 q 262 -3 245 -3 q 231 -3 213 -1 l 179 4 q 166 6 141 6 q 96 6 71 1 q 55 -2 47 -2 q 32 -2 32 10 q 32 19 43 23 q 81 36 98 68 q 116 101 116 158 l 129 479 l 130 512 q 130 570 102 604 q 73 637 23 637 q 5 637 5 651 q 5 665 26 665 q 30 665 37 665 l 65 663 q 73 662 85 662 q 108 662 130 665 q 164 669 173 669 q 206 669 219 638 z"},"g":{"x_min":0,"x_max":435,"ha":435,"o":"m 336 373 q 372 377 389 391 q 406 405 410 432 q 411 442 420 442 q 428 442 428 429 q 428 417 422 377 q 418 350 418 341 q 417 330 411 325 q 405 319 380 308 q 381 297 382 292 q 384 269 384 264 q 384 210 334 174 q 283 138 209 138 q 186 138 160 143 q 150 145 143 145 q 127 145 116 133 q 106 121 106 104 q 106 62 180 62 q 323 62 370 44 q 417 26 417 -29 q 417 -89 364 -131 q 311 -173 207 -173 q 116 -173 68 -152 q 20 -130 20 -89 q 20 -68 35 -49 q 50 -31 71 -27 q 94 -22 94 -18 l 90 -12 l 76 3 q 54 26 54 56 q 54 98 87 129 l 103 144 q 107 148 107 153 q 107 160 87 172 q 65 184 49 215 q 33 247 33 274 q 33 334 82 374 q 131 413 208 413 q 281 413 336 373 z m 208 393 q 170 393 148 363 q 126 334 126 283 q 126 229 150 193 q 173 157 208 157 q 245 157 267 186 q 289 215 289 263 q 289 393 208 393 z m 140 -27 q 121 -27 109 -41 q 96 -54 96 -74 q 96 -110 130 -131 q 165 -152 224 -152 q 275 -152 307 -134 q 339 -116 339 -85 q 339 -60 319 -52 q 300 -43 229 -38 q 187 -35 164 -31 l 151 -28 q 145 -27 140 -27 z"},"j":{"x_min":0,"x_max":258,"ha":258,"o":"m 192 369 l 192 69 q 192 13 178 -27 q 164 -66 129 -106 q 104 -135 81 -151 q 57 -168 41 -168 q 9 -168 -13 -159 q -27 -154 -27 -133 q -27 -101 -21 -77 q -14 -53 -5 -53 q 3 -53 17 -70 l 39 -96 q 54 -115 65 -115 q 80 -115 87 -88 q 94 -61 94 -1 l 94 290 q 94 347 51 347 q 43 347 38 345 q 35 345 32 345 q 22 345 22 355 q 22 366 39 369 l 63 375 q 125 387 178 424 q 182 428 185 428 q 193 428 193 413 z m 137 658 q 146 658 172 625 l 193 599 q 200 589 201 582 q 201 570 174 537 q 146 504 136 504 q 129 504 123 510 l 101 538 l 79 562 q 70 573 70 580 q 70 590 99 624 q 128 658 137 658 z"},"i":{"x_min":0,"x_max":276,"ha":276,"o":"m 139 658 q 149 658 175 625 l 196 599 q 203 589 204 582 q 204 570 177 537 q 149 504 139 504 q 132 504 126 510 l 103 538 l 82 562 q 73 573 73 579 q 73 589 102 624 q 131 658 139 658 z m 191 392 l 191 115 q 191 65 206 45 q 221 26 262 23 q 278 22 278 12 q 278 0 239 0 q 234 0 218 1 l 182 5 q 151 8 142 8 q 116 8 72 1 q 61 -1 55 -1 q 45 -1 45 8 q 45 15 51 18 l 68 26 q 79 32 86 52 q 94 72 94 94 l 93 114 l 93 280 q 93 318 85 333 q 77 347 56 347 l 45 347 q 36 347 32 351 q 31 353 31 358 q 31 370 61 376 q 135 392 177 424 q 183 427 186 427 q 192 427 192 418 l 192 414 q 191 409 191 392 z"},"y":{"x_min":0,"x_max":431,"ha":431,"o":"m 165 304 l 248 146 q 259 124 265 124 q 272 124 287 160 l 309 215 q 342 298 342 334 q 342 352 327 366 q 313 380 292 385 q 279 388 278 396 q 278 406 289 406 q 294 406 305 405 q 346 401 375 401 q 403 401 419 403 q 432 404 436 404 q 446 404 446 394 q 446 384 433 380 q 404 373 383 322 l 374 297 l 194 -151 q 188 -167 174 -167 q 170 -167 162 -166 l 134 -164 q 126 -164 127 -158 q 127 -154 131 -148 q 211 -50 211 -14 q 211 -3 200 18 l 44 325 l 31 352 q 20 373 -4 382 q -13 385 -13 392 q -13 404 2 404 q 9 404 16 403 q 58 399 92 399 q 136 399 181 404 q 187 405 190 405 q 203 405 203 393 q 203 382 191 379 l 176 377 q 149 372 149 346 q 149 335 165 304 z"},"@":{"x_min":0,"x_max":760,"ha":760,"o":"m 446 238 q 372 143 297 143 q 265 143 246 165 q 227 188 227 226 q 227 303 286 392 q 362 507 454 507 q 476 507 503 499 q 513 496 521 496 q 529 496 546 514 q 559 527 566 527 q 577 527 577 519 q 577 513 570 489 q 551 424 536 345 q 521 266 521 233 q 521 187 548 187 q 572 187 602 218 q 664 284 664 396 q 664 504 596 573 q 528 642 421 642 q 321 642 237 568 q 124 471 124 309 q 124 179 198 102 q 273 25 400 25 q 512 25 612 70 l 624 33 q 520 -13 397 -13 q 210 -13 110 104 q 34 193 34 313 q 34 464 148 572 q 262 679 422 679 q 558 679 646 601 q 734 522 734 401 q 734 258 613 176 q 563 143 517 143 q 446 143 446 222 q 446 227 446 238 z m 452 474 q 415 474 375 424 q 349 390 329 337 q 309 284 309 246 q 309 197 342 199 q 373 200 410 239 q 447 278 455 316 q 458 337 462 351 l 472 389 q 482 427 486 437 q 489 448 489 454 q 489 474 452 474 z"},".":{"x_min":0,"x_max":266,"ha":266,"o":"m 132 157 q 145 157 165 135 l 193 104 l 212 84 q 217 78 217 70 q 217 59 195 40 q 184 30 167 12 q 144 -13 132 -13 q 122 -13 105 4 q 83 29 71 40 q 47 61 47 73 q 47 84 68 103 q 79 112 99 134 q 120 157 132 157 z"},"p":{"x_min":0,"x_max":530,"ha":530,"o":"m 86 -57 l 86 277 l 87 298 l 85 319 q 78 347 46 349 q 41 349 36 348 l 31 348 q 21 348 21 359 q 21 369 31 371 l 54 375 q 117 385 148 408 q 172 425 177 425 q 184 425 185 414 l 185 400 l 185 361 q 188 351 195 350 q 197 350 203 354 q 251 392 274 402 q 297 413 331 413 q 405 413 451 362 q 498 311 498 230 q 498 114 425 43 q 366 -14 297 -14 q 233 -14 201 2 q 195 4 192 4 q 185 4 185 -14 l 185 -57 q 185 -100 200 -118 q 215 -135 257 -140 q 276 -142 276 -153 q 276 -169 260 -168 q 252 -167 243 -165 q 204 -156 177 -156 q 159 -156 124 -158 l 82 -162 q 67 -163 62 -163 q 43 -163 43 -149 q 43 -140 56 -136 q 76 -128 81 -115 q 86 -101 86 -57 z m 185 297 l 185 107 q 185 75 224 47 q 264 20 310 20 q 358 20 387 58 q 416 97 416 161 q 416 240 373 294 q 329 349 266 349 q 232 349 208 333 q 185 318 185 297 z"},"X":{"x_min":0,"x_max":726,"ha":726,"o":"m 461 670 q 466 670 479 669 q 525 666 565 666 q 586 666 609 667 l 669 671 q 688 673 700 673 q 714 673 714 660 q 714 647 698 645 q 654 638 633 621 q 570 572 491 477 q 433 407 427 401 q 405 377 405 369 q 405 360 434 324 q 447 308 498 234 q 578 119 635 63 q 670 28 724 24 q 741 22 741 8 q 741 -5 724 -5 q 716 -5 702 -4 l 641 0 q 596 4 563 4 q 541 4 521 2 l 467 -1 q 439 -2 427 -2 q 411 -2 411 9 q 411 23 429 24 q 468 27 468 61 q 468 79 444 116 q 420 154 358 234 l 334 266 q 328 275 324 275 q 320 275 312 266 q 300 252 282 231 q 170 105 170 68 q 170 28 247 22 q 263 21 263 9 q 263 -3 252 -3 q 247 -3 234 -2 q 175 4 115 4 q 99 4 71 2 l 27 1 l 5 0 l -8 2 q -12 4 -12 11 q -13 21 0 23 q 39 31 76 62 q 114 94 178 171 q 234 239 258 264 q 294 303 294 313 q 294 324 258 372 q 234 403 202 448 q 110 576 82 604 q 54 631 8 640 q -11 644 -11 656 q -11 670 5 670 q 13 670 32 669 q 112 663 151 663 q 188 663 214 666 l 260 671 q 280 673 291 673 q 306 673 306 660 q 306 647 289 645 q 271 643 260 632 q 248 621 249 609 q 251 581 285 528 l 318 481 l 354 430 q 369 408 377 409 q 382 409 390 418 l 412 444 l 463 505 q 503 551 513 567 q 523 583 523 601 q 523 633 482 638 l 460 642 q 443 644 444 657 q 445 670 461 670 z"},"*":{"x_min":0,"x_max":374,"ha":374,"o":"m 187 503 q 178 503 171 486 l 163 462 l 153 435 q 141 400 124 400 q 108 400 94 412 q 79 425 78 439 q 77 452 103 472 l 126 490 l 145 504 q 159 515 159 520 q 159 530 140 530 l 113 530 l 85 530 q 44 530 44 560 q 44 578 54 591 q 63 605 76 605 q 87 605 106 592 l 128 576 q 158 555 164 555 q 174 555 174 568 q 174 573 172 579 l 165 601 l 156 630 q 151 646 151 653 q 151 680 187 680 q 222 680 222 653 q 222 646 217 630 l 208 601 l 202 579 q 199 572 199 566 q 199 555 209 555 q 216 555 246 576 l 269 592 q 286 605 298 605 q 310 605 320 591 q 329 578 329 561 q 329 530 289 530 l 260 530 l 233 530 q 215 530 215 520 q 215 515 229 504 q 238 498 248 490 q 265 476 271 472 q 295 455 295 440 q 295 426 281 413 q 266 400 250 400 q 234 400 226 419 l 221 435 l 210 462 l 202 486 q 196 503 187 503 z"},"Y":{"x_min":0,"x_max":612,"ha":612,"o":"m 363 262 l 363 118 l 366 84 q 374 29 463 24 q 479 23 479 11 q 479 -3 457 -3 q 445 -3 432 -2 l 362 4 q 343 6 305 6 q 214 6 184 0 q 164 -3 154 -3 q 143 -3 143 13 q 143 22 157 24 q 211 33 231 59 q 250 85 250 151 l 250 244 q 250 277 229 312 q 203 354 172 413 l 98 552 q 54 636 -6 642 q -24 644 -24 656 q -24 671 -10 671 q 2 671 28 668 q 81 662 124 662 q 163 662 204 667 q 234 669 245 669 q 265 669 265 657 q 265 647 249 644 q 211 636 211 611 q 211 590 247 521 l 285 447 q 308 402 313 390 q 330 356 346 356 q 361 356 387 406 q 393 418 419 465 q 473 562 473 586 q 473 607 449 625 q 425 643 395 646 q 379 648 379 658 q 379 673 392 673 q 405 673 417 671 l 449 667 q 468 665 498 665 q 514 665 533 666 l 574 668 q 590 669 613 669 q 626 669 626 658 q 626 648 608 644 q 572 635 549 611 q 526 587 492 521 q 430 401 378 319 q 368 304 365 295 q 363 286 363 262 z"},"c":{"x_min":0,"x_max":408,"ha":408,"o":"m 267 413 q 345 413 374 373 q 392 349 392 333 q 392 317 348 292 l 328 281 q 322 278 319 278 q 307 278 305 296 q 303 332 278 358 q 253 383 222 383 q 182 383 154 344 q 127 306 127 248 q 127 159 167 101 q 208 44 270 44 q 324 44 381 84 l 387 87 q 395 88 395 79 q 395 62 358 35 q 292 -13 219 -13 q 138 -13 85 42 q 32 97 32 181 q 32 281 98 347 q 165 413 267 413 z"},"!":{"x_min":0,"x_max":279,"ha":279,"o":"m 209 628 l 157 264 q 153 235 142 235 q 130 235 128 252 l 86 607 q 83 633 83 640 q 83 656 93 662 q 102 668 129 670 q 145 671 159 673 q 178 675 187 675 q 212 675 212 655 l 211 642 z m 138 157 q 151 157 171 135 l 200 104 l 219 84 q 223 78 223 70 q 223 59 202 40 q 190 30 174 12 q 150 -13 138 -13 q 128 -13 112 4 q 89 29 77 40 q 53 61 53 73 q 53 84 74 103 q 85 112 105 134 q 126 157 138 157 z"},"/":{"x_min":0,"x_max":401,"ha":401,"o":"m 379 691 l 39 -92 q 30 -112 15 -112 q -8 -112 -9 -102 q -9 -99 -6 -93 l 339 691 q 346 708 369 708 q 381 708 383 701 z"},"[":{"x_min":0,"x_max":287,"ha":287,"o":"m 68 29 l 68 570 l 69 631 l 69 662 l 69 674 q 69 688 72 693 q 78 708 95 708 q 102 708 115 706 q 124 705 144 705 l 209 704 l 244 706 q 256 707 261 707 q 276 707 276 693 q 276 680 256 682 l 251 683 q 246 683 238 682 q 183 676 161 642 q 147 620 147 554 l 147 46 q 147 0 153 -22 q 159 -44 175 -58 q 203 -83 252 -83 l 257 -83 q 268 -83 272 -85 q 276 -87 276 -94 q 276 -107 261 -107 q 256 -107 244 -106 q 221 -104 209 -104 q 133 -104 115 -106 q 102 -108 95 -108 q 67 -108 69 -71 q 69 -60 69 -57 z"},"6":{"x_min":0,"x_max":500,"ha":500,"o":"m 417 643 q 426 643 427 639 l 430 631 l 431 625 q 430 618 410 615 q 366 607 312 574 q 259 542 226 501 q 205 475 184 431 q 164 387 164 368 q 164 355 173 355 q 179 356 188 362 q 212 379 250 392 q 288 405 315 405 q 381 405 427 353 q 473 300 473 224 q 473 119 411 53 q 349 -13 250 -13 q 153 -13 92 60 q 30 133 30 248 q 30 369 109 474 q 188 580 309 619 q 380 643 417 643 z m 245 349 q 196 349 165 312 q 133 274 133 217 q 133 139 177 78 q 220 17 276 17 q 321 17 349 55 q 377 93 377 155 q 377 243 341 296 q 304 349 245 349 z"},"r":{"x_min":0,"x_max":382,"ha":382,"o":"m 191 246 l 191 108 q 191 31 264 21 q 279 20 279 10 q 279 -2 268 -2 q 262 -2 254 -1 q 205 6 153 6 q 126 6 104 4 l 74 1 q 65 0 57 0 q 43 0 43 13 q 43 22 55 25 q 94 34 94 98 l 93 118 l 93 293 q 93 328 84 340 q 75 351 45 354 q 34 354 34 364 q 34 375 47 376 q 114 387 162 414 l 181 425 q 185 428 188 428 q 195 428 195 417 q 195 414 195 403 l 193 375 l 191 345 l 192 340 q 194 333 199 333 q 204 332 221 356 q 234 375 261 396 q 289 417 299 417 q 316 417 349 392 q 382 366 382 354 q 382 349 367 319 q 347 282 332 282 q 325 282 320 287 l 306 299 q 281 322 249 322 q 191 322 191 246 z"},"2":{"x_min":0,"x_max":500,"ha":500,"o":"m 451 170 q 462 170 463 162 l 462 157 l 455 135 q 448 115 438 94 l 413 42 q 398 11 387 5 q 376 -2 340 -2 q 319 -2 289 0 l 247 2 q 224 3 181 3 q 102 3 82 0 q 68 -3 62 -3 q 46 -3 46 10 q 46 20 75 52 q 120 103 178 187 q 236 271 264 325 q 301 397 301 455 q 301 505 273 535 q 245 565 197 565 q 130 565 76 504 q 71 499 67 499 q 64 499 60 503 q 56 507 56 511 q 56 517 71 538 q 86 559 103 574 q 167 638 252 638 q 320 638 361 601 q 403 563 403 502 q 403 392 211 173 l 188 146 q 167 124 167 114 q 167 97 208 97 l 288 98 l 335 98 q 366 100 396 118 q 426 136 440 163 q 445 170 451 170 z"},"{":{"x_min":0,"x_max":282,"ha":282,"o":"m 166 171 l 166 38 q 166 -29 183 -55 q 200 -82 251 -96 q 267 -100 267 -110 q 267 -123 231 -123 l 195 -123 q 138 -123 107 -87 q 77 -51 77 19 l 77 159 q 77 208 67 235 q 56 261 28 284 q 20 291 20 295 q 20 299 28 306 q 57 330 67 355 q 77 381 77 431 l 77 571 q 77 641 107 677 q 138 713 195 713 l 231 713 q 254 713 260 710 q 266 708 266 700 q 266 688 250 684 l 230 679 q 166 665 166 552 l 166 418 q 166 343 129 312 l 120 304 q 113 298 113 295 q 113 292 120 286 l 129 278 q 166 248 166 171 z"},"9":{"x_min":0,"x_max":500,"ha":500,"o":"m 250 638 q 346 638 407 566 q 469 494 469 380 q 469 240 373 129 q 277 18 133 -9 l 94 -17 q 88 -18 83 -18 q 70 -18 71 -3 q 71 4 75 6 q 79 8 101 13 q 170 28 235 85 q 301 143 323 206 l 332 233 q 337 248 337 256 q 337 271 326 270 q 321 270 313 264 q 288 246 250 232 q 213 219 188 219 q 120 219 73 273 q 27 327 27 405 q 27 507 90 573 q 152 638 250 638 z m 222 608 q 178 608 150 570 q 123 531 123 470 q 123 384 159 330 q 196 275 255 275 q 302 275 334 313 q 366 350 366 405 q 366 487 323 547 q 280 608 222 608 z"}," ":{"x_min":0,"x_max":250,"ha":250,"o":""},"I":{"x_min":0,"x_max":353,"ha":353,"o":"m 232 152 l 236 104 q 242 66 265 46 q 288 26 324 26 q 348 26 348 11 q 348 -3 316 -3 q 303 -3 277 0 q 214 6 174 6 q 125 6 97 1 q 73 -4 62 -4 q 51 -4 48 6 l 47 10 l 62 21 q 97 34 108 52 q 120 71 120 113 l 120 157 l 120 546 q 120 591 104 610 q 89 629 47 635 q 22 639 15 643 q 8 646 8 655 q 8 669 20 668 q 29 668 46 665 q 64 661 105 661 q 133 661 173 664 l 209 667 q 259 671 286 671 q 302 671 302 659 q 302 650 300 647 q 297 645 288 643 q 252 637 242 624 q 232 610 232 568 z"},"H":{"x_min":0,"x_max":790,"ha":790,"o":"m 514 333 l 283 333 q 248 333 240 323 q 232 314 232 276 l 232 154 q 232 85 254 54 q 277 24 328 24 q 345 24 345 11 q 345 -4 319 -4 q 311 -4 285 -1 q 227 6 179 6 q 148 6 98 0 q 68 -3 61 -3 q 45 -3 45 13 q 45 23 57 25 q 90 30 105 55 q 119 80 119 131 l 120 157 l 120 564 q 120 600 100 617 q 81 634 29 644 q 15 647 15 658 q 15 672 31 672 q 40 672 63 669 q 103 663 156 663 q 174 663 233 669 q 268 673 286 673 q 304 673 304 660 q 304 649 290 646 q 232 637 232 574 l 232 448 q 232 398 239 390 q 246 381 286 381 l 514 381 q 544 381 551 393 q 557 405 557 459 l 557 564 q 557 627 488 640 l 466 644 q 452 646 452 658 q 452 672 468 672 q 477 672 500 669 q 540 663 593 663 q 612 663 670 669 q 706 673 724 673 q 741 673 741 660 q 741 649 727 646 q 669 637 669 574 l 669 154 q 669 85 692 54 q 714 24 764 24 q 782 24 782 11 q 782 -4 757 -4 q 748 -4 723 -1 q 665 6 617 6 q 586 6 536 0 q 506 -3 498 -3 q 482 -3 482 13 q 482 23 495 25 q 528 30 542 55 q 557 80 557 131 l 557 157 l 557 265 q 557 312 551 323 q 544 333 514 333 z"},"4":{"x_min":0,"x_max":500,"ha":500,"o":"m 374 128 l 374 -26 q 373 -43 351 -43 l 317 -48 q 302 -51 292 -54 q 284 -56 279 -57 q 268 -58 268 -45 q 268 -40 270 -31 q 275 -9 275 20 l 275 128 l 275 142 l 270 154 q 264 159 241 159 l 48 159 q 26 159 19 162 q 13 166 13 179 q 13 203 129 365 q 216 486 285 571 q 355 656 367 656 q 375 656 375 643 l 375 602 l 374 558 l 374 268 l 376 255 q 380 247 401 247 q 439 247 450 279 q 453 288 459 288 q 472 288 472 277 q 472 272 471 267 q 469 258 467 226 q 464 182 454 170 q 444 158 413 158 l 396 158 q 381 158 378 153 q 374 148 374 128 z m 275 278 l 275 363 l 274 418 l 275 468 l 274 480 q 274 489 270 489 q 266 489 255 475 l 239 453 l 186 385 q 154 344 112 280 q 105 269 101 264 q 96 256 96 251 q 96 244 115 244 l 131 243 l 258 243 q 275 243 275 267 z"},"~":{"x_min":0,"x_max":667,"ha":667,"o":"m 520 733 l 537 722 q 480 620 403 620 q 381 620 317 641 q 259 660 232 660 q 208 660 191 650 q 174 640 147 608 l 129 620 q 189 723 263 723 q 291 723 351 702 q 405 684 429 684 q 478 684 520 733 z"},"D":{"x_min":0,"x_max":759,"ha":759,"o":"m 120 538 q 120 585 94 610 q 68 636 21 636 q 6 636 6 648 q 6 657 12 660 q 19 663 40 663 l 114 662 q 140 662 160 663 q 190 665 244 669 q 316 676 359 676 q 524 676 624 592 q 724 507 724 366 q 724 185 590 78 q 491 -1 368 -1 q 347 -1 285 3 q 250 5 213 5 q 126 5 97 0 q 75 -4 67 -4 q 56 -4 56 10 q 56 20 68 22 q 98 28 109 47 q 120 66 120 113 z m 232 564 l 232 136 l 238 91 q 254 35 359 35 q 472 35 539 113 q 605 191 605 325 q 605 464 525 552 q 445 640 319 640 q 267 640 248 626 q 232 616 232 564 z"},"^":{"x_min":0,"x_max":500,"ha":500,"o":"m 527 282 l 478 282 l 295 566 l 104 282 l -27 282 l 255 700 l 263 700 z"},"0":{"x_min":0,"x_max":500,"ha":500,"o":"m 266 638 q 356 638 417 556 q 479 474 479 353 q 479 277 453 199 q 427 121 385 69 q 317 -13 230 -13 q 139 -13 80 71 q 21 156 21 287 q 21 430 94 534 q 167 638 266 638 z m 218 588 q 167 588 137 538 q 108 488 108 402 q 108 255 161 153 q 214 50 291 50 q 341 50 371 101 q 401 151 401 237 q 401 314 378 395 q 354 476 318 526 q 271 588 218 588 z"},"F":{"x_min":0,"x_max":539,"ha":539,"o":"m 232 423 q 232 396 240 387 q 247 377 267 377 l 286 378 l 339 378 q 375 378 394 394 q 412 410 430 455 q 435 466 441 466 q 456 466 456 454 q 456 450 455 441 q 454 435 454 426 q 454 397 457 359 l 464 267 q 465 252 465 246 q 465 236 452 235 q 443 234 440 248 q 431 299 408 317 q 385 334 328 334 q 254 334 243 325 q 232 316 232 255 l 232 216 l 232 158 q 232 85 258 52 q 276 27 332 23 q 348 21 348 10 q 348 -3 337 -3 q 327 -3 309 -1 q 291 1 238 1 l 184 1 q 147 1 121 -2 q 85 -7 73 -7 q 57 -7 57 5 q 57 15 70 19 q 100 29 110 53 q 120 77 120 135 l 120 537 q 120 599 99 617 q 74 639 27 641 q 15 642 15 653 q 15 667 31 667 q 37 667 57 666 q 86 663 119 663 l 203 665 l 331 665 q 397 665 466 670 q 491 672 503 672 q 515 672 517 647 q 519 616 520 611 l 524 574 q 526 563 526 555 q 526 515 507 515 q 497 515 497 529 l 497 545 q 497 555 495 562 q 475 627 366 627 l 302 627 l 282 627 q 254 627 243 616 q 232 606 232 580 z"},"`":{"x_min":0,"x_max":500,"ha":500,"o":"m 233 489 l 154 566 l 145 576 q 137 584 137 590 q 137 610 162 610 q 212 610 221 608 q 231 606 237 596 l 251 567 l 276 522 q 288 501 290 498 q 297 486 297 478 q 297 467 285 468 q 272 469 233 489 z"},"k":{"x_min":0,"x_max":514,"ha":514,"o":"m 184 213 l 298 310 q 333 339 333 354 q 333 363 323 372 q 312 380 298 381 q 285 383 285 392 q 285 401 299 401 q 304 401 318 400 q 354 396 378 396 q 406 396 426 399 q 458 404 467 404 q 486 404 486 392 q 486 383 473 380 q 417 363 365 327 q 300 284 299 270 q 299 263 327 220 q 356 177 392 132 q 450 58 463 46 q 476 35 511 26 q 527 22 527 12 q 527 2 517 2 q 514 2 509 2 q 487 7 461 7 q 431 7 403 4 q 391 3 386 3 q 372 3 362 11 q 352 19 324 54 q 253 140 220 202 l 184 169 l 184 117 l 183 100 l 186 75 q 191 52 209 37 q 227 22 251 22 q 270 22 270 9 q 270 -4 248 -4 q 239 -4 222 -1 q 186 5 143 5 q 116 5 102 3 l 61 -2 q 56 -3 52 -3 q 41 -3 41 8 q 41 14 53 21 q 85 36 85 82 l 85 89 l 85 118 l 85 545 l 86 562 l 84 585 q 80 609 69 619 q 58 629 34 629 q 22 629 22 639 q 22 651 72 662 q 132 674 163 700 q 172 708 178 708 q 188 708 188 695 q 188 690 187 681 q 184 658 184 597 z"},"u":{"x_min":0,"x_max":552,"ha":552,"o":"m 466 407 l 466 104 q 466 58 474 47 q 481 36 516 36 l 527 36 q 533 36 536 35 q 544 32 544 24 q 544 7 511 7 l 487 7 q 467 7 456 6 q 426 4 387 -5 q 382 -7 378 -7 q 367 -7 367 11 q 367 21 368 28 q 369 38 369 42 q 369 57 363 58 q 360 58 355 52 l 337 34 q 292 -13 229 -13 q 157 -13 121 27 q 84 67 84 146 q 84 250 88 326 q 88 339 88 349 q 88 382 60 385 l 40 386 q 26 387 27 399 q 28 409 42 412 q 57 415 98 415 q 136 415 166 425 q 179 429 186 429 q 194 429 194 417 q 194 404 193 391 q 189 339 189 209 q 189 110 207 76 q 225 43 279 43 q 322 43 345 68 q 368 94 368 141 l 368 323 q 368 365 360 374 q 353 384 317 388 q 302 390 302 400 q 302 415 332 415 q 417 415 449 427 q 456 429 459 429 q 466 430 466 419 z"},"]":{"x_min":0,"x_max":287,"ha":287,"o":"m 220 570 l 220 29 l 220 -32 l 219 -62 l 220 -75 q 220 -88 217 -94 q 210 -108 193 -108 q 187 -108 174 -106 q 165 -105 145 -105 l 80 -104 l 44 -106 q 33 -107 27 -107 q 12 -107 12 -94 q 12 -81 32 -83 l 38 -83 q 42 -83 51 -83 q 105 -77 128 -42 q 142 -21 142 46 l 142 554 q 142 600 136 622 q 130 644 113 658 q 86 682 37 682 l 31 682 q 21 682 16 685 q 12 687 12 693 q 12 707 27 707 q 33 707 44 706 q 67 704 80 704 q 156 704 174 706 q 187 708 193 708 q 222 708 220 670 q 219 659 219 656 z"},"U":{"x_min":0,"x_max":799,"ha":799,"o":"m 548 673 q 552 673 560 671 q 568 670 598 668 l 650 666 l 698 668 q 722 670 741 672 q 750 673 757 673 q 770 673 770 661 q 770 651 758 649 l 739 646 q 701 639 701 564 l 702 521 l 701 461 q 701 320 687 234 q 673 147 642 101 q 568 -13 392 -13 q 268 -13 199 34 q 105 98 105 282 l 111 471 l 109 560 q 109 593 103 606 q 96 620 76 630 q 52 641 22 646 q 3 648 3 660 q 3 673 20 673 q 25 673 40 671 q 102 666 135 666 q 183 666 241 671 q 265 673 275 673 q 300 673 300 659 q 300 651 296 648 q 292 645 278 642 q 248 636 238 620 q 228 604 225 556 l 217 433 l 218 347 q 218 229 231 178 q 243 128 282 93 q 341 39 434 39 q 528 39 586 94 q 625 132 641 204 q 658 276 658 412 l 658 451 l 655 551 q 652 597 627 622 q 602 647 558 647 q 539 647 539 661 q 539 672 548 673 z"},"o":{"x_min":0,"x_max":503,"ha":503,"o":"m 260 413 q 352 413 412 354 q 472 296 472 206 q 472 112 407 50 q 342 -13 245 -13 q 153 -13 93 45 q 32 103 32 191 q 32 283 98 348 q 165 413 260 413 z m 234 387 q 187 387 159 347 q 131 307 131 239 q 131 146 174 80 q 217 13 278 13 q 324 13 353 51 q 382 89 382 148 q 382 248 339 317 q 296 387 234 387 z"},"N":{"x_min":0,"x_max":759,"ha":759,"o":"m 290 557 l 549 267 l 565 248 q 599 211 610 211 q 620 211 621 241 q 625 349 625 446 q 625 561 602 602 q 579 642 511 647 q 495 648 495 658 q 495 671 509 671 q 527 671 566 666 q 591 663 608 663 q 642 663 715 672 q 725 673 729 673 q 745 673 745 660 q 745 647 729 645 q 666 633 666 533 l 666 509 l 659 204 l 657 162 l 657 108 l 657 71 l 659 10 q 659 -4 649 -3 q 641 -3 631 7 l 187 501 q 175 514 170 514 q 159 514 159 492 l 158 478 l 158 288 q 158 136 173 85 q 189 30 269 23 q 283 21 283 11 q 283 -4 268 -4 q 262 -4 249 -2 q 208 5 158 5 q 109 5 70 -2 q 53 -5 45 -5 q 32 -5 32 6 q 32 16 46 20 q 82 30 98 62 q 115 94 115 154 l 118 271 l 118 482 q 118 633 7 641 q -8 642 -8 653 q -8 667 9 667 l 42 665 l 63 666 q 101 666 145 670 q 161 671 171 671 q 187 671 195 665 q 204 658 232 625 l 266 585 q 286 562 290 557 z"},"+":{"x_min":0,"x_max":500,"ha":500,"o":"m 283 281 l 283 248 l 284 214 l 286 165 l 286 152 q 286 131 272 128 l 252 124 l 229 116 l 223 119 q 216 126 216 142 q 216 147 217 163 q 219 187 219 208 l 218 250 l 218 281 l 186 282 l 145 282 q 123 282 100 281 q 83 280 79 280 q 52 280 52 294 l 60 316 l 65 336 q 68 350 88 350 q 92 350 102 349 q 130 348 150 348 l 184 347 l 217 346 l 217 375 l 214 465 q 214 483 229 497 q 244 511 262 511 q 276 511 279 501 q 282 490 282 435 l 282 345 l 372 345 l 426 344 q 448 344 448 326 q 448 307 434 292 q 419 278 402 278 q 397 278 387 278 q 333 281 312 281 z"},"G":{"x_min":0,"x_max":735,"ha":735,"o":"m 371 680 q 453 680 562 632 q 590 621 598 621 q 604 621 610 625 l 615 630 q 620 635 627 636 q 642 636 642 618 l 641 584 l 639 517 l 641 482 q 642 469 644 454 q 644 448 644 445 q 644 429 629 430 q 619 431 615 451 q 605 509 553 565 q 479 645 375 645 q 275 645 216 566 q 156 488 156 357 q 156 218 218 122 q 279 27 370 27 q 396 27 438 39 q 479 51 501 65 q 521 78 528 102 q 536 126 536 178 q 536 236 515 259 q 494 282 436 285 q 421 286 421 299 q 421 312 438 312 q 444 312 456 311 q 503 307 564 307 q 626 307 656 310 q 678 313 692 313 q 710 313 710 300 q 710 289 692 285 q 664 279 653 255 q 643 230 643 172 q 643 154 644 140 q 646 116 646 106 q 646 91 640 84 q 634 77 615 70 q 604 66 538 37 q 421 -13 334 -13 q 202 -13 118 76 q 35 166 35 307 q 35 465 131 573 q 228 680 371 680 z"},"q":{"x_min":0,"x_max":512,"ha":512,"o":"m 446 314 l 446 -40 l 446 -76 q 446 -108 454 -122 q 462 -136 484 -142 q 494 -144 494 -152 q 494 -164 481 -164 q 477 -164 471 -164 l 447 -163 q 429 -162 421 -162 q 340 -162 304 -165 q 277 -168 270 -168 q 255 -168 255 -157 q 255 -145 271 -145 q 320 -142 337 -114 q 348 -98 348 -47 l 348 24 q 348 48 341 47 q 336 47 330 42 q 296 12 267 -1 q 238 -13 202 -13 q 125 -13 79 39 q 32 91 32 175 q 32 280 97 346 q 163 413 265 413 q 331 413 391 375 q 396 372 399 372 q 407 373 420 392 q 437 417 443 417 q 451 417 451 407 q 451 402 450 394 q 446 361 446 314 z m 348 112 l 348 293 q 348 328 311 359 q 274 390 233 390 q 183 390 151 348 q 120 307 120 240 q 120 155 162 98 q 204 42 267 42 q 348 42 348 112 z"},"d":{"x_min":0,"x_max":532,"ha":532,"o":"m 447 534 l 447 127 q 447 80 459 62 q 471 45 503 45 q 519 45 519 33 q 519 18 504 18 l 477 15 l 434 8 q 404 4 366 -10 q 357 -14 351 -14 q 346 -14 346 -5 l 347 35 q 347 43 344 47 l 341 49 q 338 49 334 44 q 310 20 271 3 q 231 -13 197 -13 q 123 -13 77 37 q 31 87 31 167 q 31 270 92 342 q 152 413 239 413 q 284 413 332 395 q 336 393 340 393 q 349 393 349 410 l 349 524 q 349 584 338 605 q 327 625 294 625 q 278 625 278 638 q 278 648 288 650 l 315 655 q 383 666 428 697 q 437 703 443 704 q 451 704 451 688 q 451 686 450 676 q 449 657 449 646 l 448 619 z m 349 109 l 349 289 q 349 327 310 356 q 271 385 220 385 q 174 385 146 346 q 118 307 118 243 q 118 162 160 106 q 202 50 263 50 q 286 50 311 61 q 336 71 343 83 q 349 92 349 109 z"},"1":{"x_min":0,"x_max":500,"ha":500,"o":"m 317 533 l 317 115 l 316 94 l 321 67 q 335 29 403 25 q 423 24 423 14 q 423 -3 381 -3 q 372 -3 318 1 q 291 3 241 3 q 192 3 157 -1 q 143 -2 137 -2 q 125 -2 125 10 q 125 20 137 22 q 188 30 203 45 q 218 60 218 103 l 217 121 l 217 493 q 217 544 177 544 q 162 544 149 539 l 137 534 q 132 532 127 532 q 115 532 115 543 q 115 555 127 562 q 139 568 177 576 q 247 591 277 619 l 300 640 q 305 645 313 645 q 323 645 323 626 q 323 621 322 607 l 318 563 q 317 550 317 533 z"},"5":{"x_min":0,"x_max":500,"ha":500,"o":"m 368 515 l 189 515 q 158 515 152 470 q 149 445 146 425 q 144 412 144 401 q 144 387 159 387 q 164 387 171 388 q 202 394 232 394 q 324 394 379 346 q 433 299 433 219 q 433 122 360 54 q 288 -13 183 -13 q 139 -13 86 5 q 33 23 33 38 q 33 51 46 51 q 49 51 55 49 q 125 23 167 23 q 239 23 288 68 q 338 113 338 178 q 338 233 299 269 q 259 304 199 304 q 182 304 146 299 q 125 296 117 296 q 96 296 96 321 q 96 328 100 346 q 104 361 111 419 q 114 448 120 485 l 129 553 q 135 599 139 605 q 144 612 165 612 l 355 612 q 375 612 389 627 l 409 646 q 413 650 419 650 q 427 650 427 642 q 427 635 424 627 l 414 590 l 405 561 q 395 525 391 520 q 387 515 368 515 z"}}}
